<svg width="32" height="32" viewBox="0 0 32 32" fill="#F6F4F3" xmlns="http://www.w3.org/2000/svg">
<path d="M25.6667 5H7C5.93913 5 4.92172 5.42143 4.17157 6.17157C3.42143 6.92172 3 7.93913 3 9V22.3333C3 23.3941 3.42143 24.4116 4.17157 25.1617C4.92172 25.9119 5.93913 26.3333 7 26.3333H25.6667C26.7275 26.3333 27.7449 25.9119 28.4951 25.1617C29.2452 24.4116 29.6667 23.3941 29.6667 22.3333V9C29.6667 7.93913 29.2452 6.92172 28.4951 6.17157C27.7449 5.42143 26.7275 5 25.6667 5ZM7 7.66667H25.6667C26.0203 7.66667 26.3595 7.80715 26.6095 8.05719C26.8595 8.30724 27 8.64637 27 9L16.3333 15.5067L5.66667 9C5.66667 8.64637 5.80715 8.30724 6.05719 8.05719C6.30724 7.80715 6.64637 7.66667 7 7.66667ZM27 22.3333C27 22.6869 26.8595 23.0261 26.6095 23.2761C26.3595 23.5261 26.0203 23.6667 25.6667 23.6667H7C6.64637 23.6667 6.30724 23.5261 6.05719 23.2761C5.80715 23.0261 5.66667 22.6869 5.66667 22.3333V12.04L15.64 18.1333C15.8427 18.2504 16.0727 18.312 16.3067 18.312C16.5407 18.312 16.7707 18.2504 16.9733 18.1333L27 12.04V22.3333Z" fill="#F5F1ED"/>
</svg>
