<svg width="32" height="32" viewBox="0 0 32 32" fill="#F6F4F3" xmlns="http://www.w3.org/2000/svg">
<path d="M25.4109 16.7471C25.1175 16.7471 24.8109 16.6538 24.5175 16.5871C23.9235 16.4562 23.3397 16.2823 22.7709 16.0671C22.1523 15.842 21.4723 15.8538 20.8619 16.0999C20.2514 16.346 19.7537 16.8092 19.4642 17.4004L19.1709 18.0004C17.8722 17.2779 16.6789 16.3807 15.6242 15.3338C14.5772 14.2791 13.68 13.0858 12.9576 11.7871L13.5176 11.4137C14.1086 11.1243 14.572 10.6264 14.8181 10.016C15.0642 9.40552 15.0758 8.7256 14.8509 8.10706C14.6392 7.53695 14.4654 6.95344 14.3309 6.36039C14.2642 6.06706 14.2109 5.76039 14.1709 5.45372C14.0089 4.51455 13.517 3.66404 12.7837 3.05538C12.0503 2.4467 11.1238 2.11987 10.1709 2.13372H6.17086C5.59623 2.12832 5.02719 2.2468 4.50247 2.4811C3.97775 2.71538 3.50967 3.05998 3.1301 3.49143C2.75052 3.92287 2.46836 4.43104 2.30284 4.98134C2.13731 5.53163 2.0923 6.11114 2.17086 6.68039C2.88118 12.2662 5.43223 17.4562 9.42106 21.4306C13.4099 25.405 18.6091 27.9371 24.1975 28.6271H24.7042C25.6874 28.6284 26.6367 28.2678 27.3709 27.6138C27.7926 27.2364 28.1297 26.7739 28.3594 26.2568C28.5893 25.7396 28.7067 25.1796 28.7042 24.6138V20.6138C28.6878 19.6875 28.3506 18.7958 27.7499 18.0906C27.1494 17.3854 26.3226 16.9106 25.4109 16.7471ZM26.0775 24.7471C26.0773 24.9363 26.0367 25.1235 25.9586 25.2959C25.8803 25.4683 25.7663 25.622 25.6242 25.7471C25.4751 25.8756 25.301 25.9718 25.1127 26.0292C24.9245 26.0866 24.7262 26.104 24.5309 26.0804C19.5374 25.4402 14.8991 23.1556 11.3478 19.5874C7.79644 16.0192 5.53407 11.3702 4.91752 6.37372C4.8963 6.1784 4.9149 5.98083 4.97219 5.79291C5.02948 5.60499 5.12428 5.43063 5.25086 5.28039C5.3758 5.13816 5.5296 5.02418 5.70203 4.946C5.87444 4.86784 6.06154 4.8273 6.25086 4.82706H10.2509C10.5609 4.82015 10.8637 4.92156 11.107 5.11382C11.3504 5.30607 11.5191 5.57715 11.5842 5.88039C11.6375 6.24483 11.7042 6.60483 11.7842 6.96039C11.9382 7.66324 12.1432 8.35396 12.3975 9.02706L10.5309 9.89372C10.3713 9.96695 10.2277 10.071 10.1084 10.1998C9.98911 10.3287 9.89646 10.4799 9.83575 10.6446C9.77504 10.8094 9.74748 10.9846 9.75466 11.16C9.76182 11.3355 9.80358 11.5078 9.87752 11.6671C11.7965 15.7774 15.1005 19.0815 19.2109 21.0004C19.5354 21.1338 19.8996 21.1338 20.2242 21.0004C20.3905 20.9408 20.5433 20.849 20.6737 20.7299C20.8042 20.611 20.9097 20.4672 20.9842 20.3071L21.8109 18.4404C22.5001 18.6868 23.2037 18.8916 23.9175 19.0538C24.273 19.1338 24.633 19.2004 24.9975 19.2538C25.3007 19.3187 25.5718 19.4875 25.7641 19.7308C25.9563 19.9742 26.0578 20.277 26.0509 20.5871L26.0775 24.7471Z" fill="#F5F1ED"/>
</svg>
