<svg width="208" height="33" viewBox="0 0 208 33" fill="none" xmlns="http://www.w3.org/2000/svg">
<g clip-path="url(#clip0_566_37278)">
<g clip-path="url(#clip1_566_37278)">
<path d="M23.7291 10.9913C21.4379 8.54049 19.2882 7.29263 16.5816 7.29263C11.6751 7.29263 8.43458 10.9913 8.43458 16.1533C8.43458 20.7857 11.6112 24.637 16.5816 24.637C19.2927 24.637 21.4424 23.434 23.7291 20.9787V30.0863C21.018 31.3341 18.494 31.9267 15.6642 31.9267C6.58153 31.9222 0 25.2115 0 15.9424C0 6.67318 6.58153 0.0478516 15.6642 0.0478516C18.494 0.0478516 21.0134 0.595474 23.7291 1.92862V10.9958V10.9913Z" fill="#1D1D1B"/>
<path d="M125.373 15.9693C125.373 8.54049 119.371 2.48971 111.799 2.48971C104.227 2.48971 98.271 8.4148 98.271 15.9693C98.271 23.5238 104.277 29.5252 111.799 29.5252C119.321 29.5252 125.373 23.5732 125.373 15.9693ZM123.561 27.3527C120.435 30.3601 116.272 32.0479 111.799 32.0479C107.326 32.0479 103.269 30.3601 100.074 27.3527C96.9885 24.3183 95.2769 20.2515 95.2769 15.9693C95.2769 11.6871 96.9383 7.6607 100.074 4.62633C103.273 1.59197 107.276 0.0478516 111.799 0.0478516C116.322 0.0478516 120.462 1.59646 123.561 4.62633C126.701 7.6607 128.422 11.7454 128.422 15.9693C128.422 20.1932 126.669 24.3183 123.561 27.3527Z" fill="#1D1D1B"/>
<path d="M148.285 2.4942C140.134 2.4942 134.766 8.09611 134.766 15.9424C134.766 23.7886 140.476 29.4579 147.911 29.4579C151.485 29.4579 154.903 28.2594 157.911 25.8938L157.811 29.0943C154.858 31.0289 151.238 32.0479 148.052 32.0479C138.65 32.0479 131.763 25.5931 131.763 15.9424C131.763 6.29164 138.805 0.0478516 148.052 0.0478516C151.905 0.0478516 155.332 1.1027 158.153 3.27074L158.043 6.2692C154.958 3.78246 151.905 2.4942 148.285 2.4942Z" fill="#1D1D1B"/>
<path d="M165.812 0.725586V20.6106C165.812 26.612 168.523 29.5251 174.232 29.5251C179.942 29.5251 182.731 26.6165 182.731 20.6106V0.725586H185.542V19.7263C185.542 27.9227 181.818 32.0433 174.232 32.0433C166.647 32.0433 162.945 27.9227 162.945 19.7263V0.725586H165.807H165.812Z" fill="#1D1D1B"/>
<path d="M192.019 24.7942C192.918 27.8286 195.296 29.5253 198.381 29.5253C202.252 29.5253 204.589 27.1732 204.589 23.0481C204.589 19.3943 202.288 17.913 198.678 16.0771C193.826 13.5949 191.01 11.5525 191.01 7.28823C191.01 3.02396 194.15 0.043457 198.961 0.043457C202.056 0.043457 204.392 1.31825 205.83 3.86335L203.685 5.14712C202.786 3.43243 201.065 2.48531 198.774 2.48531C195.689 2.48531 193.831 4.37057 193.831 7.32863C193.831 11.0049 196.638 11.9206 200.682 14.0976C205.209 16.5619 207.309 18.51 207.309 23.0436C207.309 28.5827 203.831 32.039 198.244 32.039C194.16 32.039 191.257 29.9697 189.55 26.0465L192.028 24.7852L192.019 24.7942Z" fill="#1D1D1B"/>
<path d="M37.5813 19.2415H47.7229V12.7059H37.5813V7.4362H46.6777L48.3573 0.725586H29.3521V31.1635H48.3573V24.3631H37.5813V19.2415Z" fill="#1D1D1B"/>
<path d="M72.8851 24.0803H62.3967V0.725586H53.9302V31.1635H71.1234L72.8851 24.0803Z" fill="#1D1D1B"/>
<path d="M80.3567 3.32904H92.2737L92.8305 0.725586H77.5634V31.1635H80.3567V15.471H91.265V12.8496H80.3567V3.32904Z" fill="#1D1D1B"/>
</g>
</g>
<defs>
<clipPath id="clip0_566_37278">
<rect width="207.304" height="32" fill="white" transform="translate(0 0.0478516)"/>
</clipPath>
<clipPath id="clip1_566_37278">
<rect width="207.304" height="32" fill="white" transform="translate(0 0.0478516)"/>
</clipPath>
</defs>
</svg>
